<svg xmlns="http://www.w3.org/2000/svg" width="269" height="99" viewBox="0 0 269 99">
  <g id="Grupo_1" data-name="Grupo 1" transform="translate(-419 -419)">
    <g id="Trazado_1" data-name="Trazado 1" transform="translate(419 419)" fill="#f07800">
      <path d="M 252 98.5 L 17 98.5 C 12.59270000457764 98.5 8.449166297912598 96.78369903564453 5.332733154296875 93.66726684570313 C 2.216300010681152 90.55083465576172 0.5 86.40730285644531 0.5 82 L 0.5 17 C 0.5 12.59270000457764 2.216300010681152 8.449166297912598 5.332733154296875 5.332733154296875 C 8.449166297912598 2.216300010681152 12.59270000457764 0.5 17 0.5 L 252 0.5 C 256.4073181152344 0.5 260.5508422851563 2.216300010681152 263.6672668457031 5.332733154296875 C 266.78369140625 8.449166297912598 268.5 12.59270000457764 268.5 17 L 268.5 82 C 268.5 86.40730285644531 266.78369140625 90.55083465576172 263.6672668457031 93.66726684570313 C 260.5508422851563 96.78369903564453 256.4073181152344 98.5 252 98.5 Z" stroke="none"/>
      <path d="M 17 1 C 12.72625732421875 1 8.708282470703125 2.664283752441406 5.686279296875 5.686286926269531 C 2.664276123046875 8.708282470703125 1 12.72624969482422 1 17 L 1 82 C 1 86.27375030517578 2.664276123046875 90.29171752929688 5.686279296875 93.31371307373047 C 8.708282470703125 96.33571624755859 12.72625732421875 98 17 98 L 252 98 C 256.2737426757813 98 260.2917175292969 96.33571624755859 263.313720703125 93.31371307373047 C 266.3357238769531 90.29171752929688 268 86.27375030517578 268 82 L 268 17 C 268 12.72624969482422 266.3357238769531 8.708282470703125 263.313720703125 5.686286926269531 C 260.2917175292969 2.664283752441406 256.2737426757813 1 252 1 L 17 1 M 17 0 L 252 0 C 261.3888549804688 0 269 7.61114501953125 269 17 L 269 82 C 269 91.38882446289063 261.3888549804688 99 252 99 L 17 99 C 7.61114501953125 99 0 91.38882446289063 0 82 L 0 17 C 0 7.61114501953125 7.61114501953125 0 17 0 Z" stroke="none" fill="#707070"/>
    </g>
    <text id="Modificación_de_Usuarios" data-name="Modificación de Usuarios" transform="translate(430 455)" fill="#fff" font-size="20" font-family="SegoeUI-Bold, Segoe UI" font-weight="700"><tspan x="-118.926" y="22">Modificación de Usuarios</tspan></text>
  </g>
</svg>
